<mxfile host="app.diagrams.net" modified="2023-05-22T17:10:14.073Z" agent="Mozilla/5.0 (Macintosh; Intel Mac OS X 10.15; rv:109.0) Gecko/20100101 Firefox/113.0" version="21.3.2" etag="-UJUrYdCnY2innTeoBJx" type="github">
  <diagram name="Page-1" id="Mepn7ILj13PdKXBpGAqw">
    <mxGraphModel>
      <root>
        <mxCell id="0" />
        <mxCell id="1" parent="0" />
      </root>
    </mxGraphModel>
  </diagram>
</mxfile>
